<svg width="20" height="20" viewBox="0 0 20 20" fill="none" xmlns="http://www.w3.org/2000/svg">
<path d="M9.99935 1.6665C7.74935 1.6665 5.66602 2.58317 4.08268 4.1665C2.49935 5.74984 1.66602 7.9165 1.66602 10.1665C1.66602 14.6665 5.33268 18.3332 9.83268 18.3332H9.99935C14.6652 18.2498 18.3327 14.4998 18.3327 9.83317C18.3327 5.33317 14.6652 1.6665 10.166 1.6665H9.99935ZM9.33268 6.31659C9.33268 5.89992 9.66602 5.64992 9.99935 5.64992C10.416 5.64992 10.666 5.98325 10.666 6.31659V10.4833C10.666 10.8999 10.3327 11.1499 9.99935 11.1499C9.58268 11.1499 9.33268 10.8999 9.33268 10.4833V6.31659ZM9.99918 14.3583C9.40087 14.3583 8.91585 13.8733 8.91585 13.275C8.91585 12.6767 9.40087 12.1917 9.99918 12.1917C10.5975 12.1917 11.0825 12.6767 11.0825 13.275C11.0825 13.8733 10.5975 14.3583 9.99918 14.3583Z" fill="#DF7B00"/>
</svg>
