<svg width="58" height="60" viewBox="0 0 58 60" fill="none" xmlns="http://www.w3.org/2000/svg">
<path d="M54.2118 59.9137C54.6426 59.8164 54.9864 59.6167 55.3123 59.2743C55.8941 58.6634 55.8548 59.4058 55.8342 49.3901L55.8156 40.5238L55.6558 40.198C55.5682 40.0179 55.4238 39.7986 55.3336 39.709C55.1892 39.5654 55.1609 39.4456 55.0913 38.6658C54.8567 36.0321 54.4079 32.7525 54.0589 31.1196C53.7934 29.8776 53.5379 29.1503 53.0311 28.1944C52.5375 27.2629 52.3338 26.7396 52.0964 25.7904C51.6956 24.1892 51.6654 23.6394 51.3904 12.9475L51.2151 6.10237L50.5432 2.7454C50.5286 2.67272 50.4452 2.54307 50.3752 2.45632C49.8467 1.8009 49.2374 1.17689 48.5098 0.753313C47.8081 0.344839 46.3974 0.00015814 46.1934 0C39.8419 0.00186929 44.0561 0.00780125 37.4746 0.00319068H28.4746L28.5063 22.9521V56.007H35.8598H43.2135V57.2618C43.2135 58.3366 43.2327 58.5542 43.3423 58.7776C43.5073 59.1203 44.0246 59.5616 44.5129 59.7777L44.9047 59.9505L49.4273 59.9612C51.9183 59.967 54.0686 59.9466 54.2118 59.9137ZM42.4553 39.9463C42.1285 39.8051 42.0413 39.5077 42.0418 38.5356C42.0423 37.7368 42.0581 37.6233 42.2119 37.3091C42.395 36.9365 42.9871 36.3378 43.4898 36.0153C43.6599 35.9058 45.3847 35.1165 47.3209 34.2612C50.7964 32.7265 50.8473 32.7065 51.2954 32.7065C51.6627 32.7065 51.8094 32.7405 52.0636 32.8793C52.4766 33.108 52.7856 33.4481 53.0326 33.9468L53.2337 34.3528L53.212 36.0686L53.1903 37.7845L53.0022 38.1449C52.7522 38.6261 52.4023 39.0006 52.0383 39.1773C51.7723 39.3063 51.284 39.3623 47.5623 39.697C43.4746 40.0635 42.8058 40.0974 42.4553 39.9463Z" fill="#424242"/>
<path d="M3.10656 59.9137C2.67581 59.8164 2.33193 59.6167 2.0061 59.2743C1.42429 58.6634 1.46352 59.4058 1.48414 49.3901L1.50272 40.5238L1.66252 40.198C1.75016 40.0179 1.89454 39.7986 1.98476 39.709C2.12912 39.5654 2.15746 39.4456 2.22706 38.6658C2.46163 36.0321 2.91044 32.7525 3.25947 31.1196C3.52498 29.8776 3.78047 29.1503 4.28726 28.1944C4.7809 27.2629 4.98452 26.7396 5.22193 25.7904C5.62277 24.1892 5.65292 23.6394 5.92797 12.9475L6.1033 6.10237L6.77517 2.7454C6.78972 2.67272 6.87318 2.54307 6.94314 2.45632C7.47166 1.8009 8.08094 1.17689 8.80859 0.753313C9.5103 0.344839 10.9209 0.00015814 11.125 0C17.4765 0.00186929 13.2622 0.00780125 19.8437 0.00319068H28.8437L28.812 22.9521V56.007H21.4585H14.1048V57.2618C14.1048 58.3366 14.0856 58.5542 13.976 58.7776C13.811 59.1203 13.2937 59.5616 12.8054 59.7777L12.4136 59.9505L7.89102 59.9612C5.40011 59.967 3.24978 59.9466 3.10656 59.9137ZM14.863 39.9463C15.1898 39.8051 15.277 39.5077 15.2765 38.5356C15.276 37.7368 15.2602 37.6233 15.1064 37.3091C14.9233 36.9365 14.3312 36.3378 13.8285 36.0153C13.6584 35.9058 11.9336 35.1165 9.99745 34.2612C6.522 32.7265 6.47111 32.7065 6.02296 32.7065C5.65563 32.7065 5.50894 32.7405 5.25477 32.8793C4.84181 33.108 4.53274 33.4481 4.28578 33.9468L4.08469 34.3528L4.10632 36.0686L4.12806 37.7845L4.31617 38.1449C4.56621 38.6261 4.91606 39.0006 5.28004 39.1773C5.54607 39.3063 6.03431 39.3623 9.75603 39.697C13.8437 40.0635 14.5125 40.0974 14.863 39.9463Z" fill="#424242"/>
<path d="M9.06141 6.69092H48.5906L48.9367 17.6432H8.66016L9.06141 6.69092Z" fill="#DDDDDD"/>
<path d="M4.95312 19.1035L14.6197 26.4051L19.2597 43.5637" stroke="#DDDDDD"/>
<path d="M52.5157 19.1035L42.849 26.4051L38.209 43.5637" stroke="#DDDDDD"/>
<path d="M14.6211 26.405H42.8478" stroke="#DDDDDD"/>
<path d="M0.699219 42.4683C0.699219 42.4683 17.8853 43.9286 28.9258 43.9286C39.9665 43.9286 57.1525 42.4683 57.1525 42.4683" stroke="#DDDDDD"/>
<path d="M0.476537 10.0002C0.555448 8.95718 1.42479 8.15112 2.47083 8.15112H3.25642C4.36099 8.15112 5.25642 9.04655 5.25642 10.1511V16.3733C5.25642 17.4779 4.36099 18.3733 3.25642 18.3733H2.00011C0.836099 18.3733 -0.0819959 17.3831 0.00581377 16.2224L0.476537 10.0002Z" fill="#424242"/>
<path d="M56.7799 10.0002C56.7009 8.95718 55.8316 8.15112 54.7856 8.15112H54C52.8954 8.15112 52 9.04655 52 10.1511V16.3733C52 17.4779 52.8954 18.3733 54 18.3733H55.2563C56.4203 18.3733 57.3384 17.3831 57.2506 16.2224L56.7799 10.0002Z" fill="#424242"/>
</svg>
