<svg width="20" height="20" viewBox="0 0 20 20" fill="none" xmlns="http://www.w3.org/2000/svg">
<g clip-path="url(#clip0_1249_1277)">
<path d="M2.92984 17.0701C1.97473 16.1476 1.21291 15.0442 0.688821 13.8241C0.164731 12.6041 -0.111131 11.2919 -0.122669 9.96409C-0.134207 8.6363 0.11881 7.3195 0.621618 6.09054C1.12443 4.86158 1.86696 3.74506 2.80589 2.80613C3.74481 1.8672 4.86133 1.12467 6.09029 0.621863C7.31926 0.119054 8.63605 -0.133963 9.96385 -0.122425C11.2916 -0.110887 12.6038 0.164975 13.8239 0.689065C15.0439 1.21316 16.1474 1.97498 17.0698 2.93008C18.8914 4.8161 19.8994 7.34212 19.8766 9.96409C19.8538 12.5861 18.8021 15.0942 16.948 16.9483C15.0939 18.8023 12.5858 19.854 9.96385 19.8768C7.34188 19.8996 4.81586 18.8917 2.92984 17.0701ZM11.3998 10.0001L14.2298 7.17008L12.8198 5.76008L9.99984 8.59008L7.16984 5.76008L5.75984 7.17008L8.58984 10.0001L5.75984 12.8301L7.16984 14.2401L9.99984 11.4101L12.8298 14.2401L14.2398 12.8301L11.4098 10.0001H11.3998Z" fill="#D21C1C"/>
</g>
<defs>
<clipPath id="clip0_1249_1277">
<rect width="20" height="20" fill="white"/>
</clipPath>
</defs>
</svg>
