<svg width="17" height="20" viewBox="0 0 17 20" fill="none" xmlns="http://www.w3.org/2000/svg">
<path d="M1.02239 19.9213C0.608538 19.7979 0.366652 19.6358 0.169114 19.3496L0 19.1045L0.0201767 9.90814L0.0403533 0.711757L0.252362 0.480779C0.368947 0.35376 0.597085 0.193631 0.759243 0.124924C1.0444 0.00410992 1.2104 0 5.83491 0H10.6159L13.8079 2.65187L17 5.30374L16.9797 12.2401L16.9596 19.1764L16.7516 19.4373C16.6376 19.5807 16.3994 19.7621 16.223 19.8405L15.902 19.9829L8.61274 19.9963C2.48985 20.0076 1.27256 19.9958 1.02239 19.9213ZM14.8788 5.25497C14.8788 5.17264 10.7286 1.69402 10.6304 1.69402C10.6001 1.69402 10.5734 2.38715 10.5734 3.23429C10.5734 4.94719 10.6037 5.08026 11.0503 5.24115C11.3819 5.36088 14.8788 5.37352 14.8788 5.25497Z" fill="#898989"/>
<path d="M2.70308 9.71126C2.46689 9.64338 2.24048 9.47294 2.16919 9.30906C2.14038 9.24327 2.1015 9.18941 2.08206 9.18941C2.02157 9.18941 2.04424 8.73213 2.11084 8.59902C2.2023 8.4169 2.36871 8.26534 2.60584 8.14772L2.81208 8.04541H8.4747H14.1372L14.3436 8.12682C14.5326 8.20128 14.7813 8.38787 14.8752 8.52574C14.9541 8.64147 14.9792 9.02158 14.9191 9.1895C14.8532 9.37342 14.639 9.58483 14.417 9.68534C14.2751 9.74964 14.0214 9.75289 8.58424 9.76036C3.53472 9.76635 2.87785 9.76139 2.70308 9.71126Z" fill="white"/>
<path d="M2.98707 13.3854C2.96187 13.3794 2.87184 13.3614 2.78435 13.3504C2.58345 13.3235 2.24919 13.083 2.13311 12.8834C1.90844 12.497 2.10793 12.0124 2.58899 11.7684L2.76864 11.6775H7.43181C11.8116 11.6775 12.1002 11.6805 12.1796 11.7412C12.226 11.7762 12.2832 11.8049 12.3063 11.8049C12.379 11.8049 12.6549 12.0704 12.7359 12.2181C12.7914 12.3195 12.8082 12.4218 12.796 12.5823C12.7744 12.8562 12.6221 13.0645 12.3022 13.2553L12.0851 13.3848L7.55806 13.3908C5.06814 13.3938 3.01112 13.3923 2.98707 13.3854Z" fill="white"/>
<path d="M2.63713 16.9223C2.22888 16.7432 2.04688 16.4941 2.04688 16.1151C2.04688 15.9775 2.0649 15.8722 2.09083 15.8722C2.11603 15.8722 2.13434 15.8424 2.13434 15.8056C2.13434 15.7389 2.37663 15.5086 2.56868 15.3929C2.62485 15.3591 2.77144 15.3214 2.89458 15.3095C3.01771 15.2975 5.62701 15.2915 8.69333 15.2975L14.2685 15.3095L14.4521 15.4019C14.6822 15.518 14.8938 15.7358 14.9214 15.8852C14.9747 16.1735 14.9749 16.2639 14.9229 16.4074C14.8588 16.5853 14.7051 16.7486 14.4744 16.8844L14.312 16.9802L8.56203 16.9891L2.81195 16.9981L2.63713 16.9223Z" fill="white"/>
</svg>
