<svg width="20" height="18" viewBox="0 0 20 18" fill="none" xmlns="http://www.w3.org/2000/svg">
<path d="M19.3715 2.8905C19.7973 2.46131 19.7969 1.76891 19.3706 1.34018L18.6771 0.642701C18.2471 0.210147 17.5471 0.210147 17.117 0.642701L9.57868 8.22442C9.15207 8.65348 9.15207 9.34652 9.57868 9.77559L17.117 17.3573C17.5471 17.7899 18.2471 17.7899 18.6771 17.3573L19.3706 16.6598C19.7969 16.2311 19.7973 15.5387 19.3715 15.1095L13.939 9.63387C13.5909 9.28299 13.5909 8.71701 13.939 8.36613L19.3715 2.8905ZM10.4229 2.8905C10.8487 2.46131 10.8484 1.76891 10.4221 1.34018L9.72859 0.642701C9.29851 0.210147 8.59858 0.210147 8.1685 0.642701L0.630132 8.22442C0.203524 8.65348 0.203525 9.34652 0.630133 9.77559L8.1685 17.3573C8.59858 17.7899 9.29851 17.7899 9.72859 17.3573L10.4221 16.6598C10.8484 16.2311 10.8487 15.5387 10.4229 15.1095L4.99047 9.63387C4.64235 9.28299 4.64235 8.71701 4.99047 8.36613L10.4229 2.8905Z" fill="#363636" stroke="#363636" stroke-width="0.2"/>
</svg>
