<svg width="20" height="18" viewBox="0 0 20 18" fill="none" xmlns="http://www.w3.org/2000/svg">
<path d="M0.771194 16.5188C0.422422 16.168 0.422113 15.6015 0.770504 15.2504L6.20296 9.77473C6.62844 9.34587 6.62844 8.65413 6.20296 8.22527L0.770502 2.74964C0.422113 2.39848 0.422422 1.83198 0.771196 1.4812L1.46469 0.783716C1.81657 0.429808 2.38924 0.429808 2.74113 0.783716L10.2795 8.36543C10.6285 8.71648 10.6285 9.28352 10.2795 9.63457L2.74113 17.2163C2.38924 17.5702 1.81657 17.5702 1.46469 17.2163L0.771194 16.5188ZM9.71974 16.5188C9.37097 16.168 9.37066 15.6015 9.71905 15.2504L15.1515 9.77473C15.577 9.34587 15.577 8.65413 15.1515 8.22527L9.71905 2.74964C9.37066 2.39848 9.37097 1.83198 9.71974 1.4812L10.4132 0.783716C10.7651 0.429808 11.3378 0.429808 11.6897 0.783716L19.228 8.36543C19.5771 8.71648 19.5771 9.28352 19.228 9.63457L11.6897 17.2163C11.3378 17.5702 10.7651 17.5702 10.4132 17.2163L9.71974 16.5188Z" fill="#363636" stroke="#363636" stroke-width="0.2"/>
</svg>
