<svg width="20" height="20" viewBox="0 0 20 20" fill="none" xmlns="http://www.w3.org/2000/svg">
<path d="M13.4511 1.66675H6.54757L1.66602 6.5483V13.4519L6.54757 18.3334H13.4511L18.3327 13.4519V6.5483L13.4511 1.66675ZM9.99953 5.65008C10.4162 5.65008 10.6662 5.98341 10.6662 6.31674V10.4834C10.6662 10.9001 10.3329 11.1501 9.99953 11.1501C9.58286 11.1501 9.33286 10.9001 9.33286 10.4834V6.31674C9.33286 5.90008 9.66619 5.65008 9.99953 5.65008ZM11.0827 13.2752C11.0827 13.8735 10.5977 14.3585 9.99936 14.3585C9.40105 14.3585 8.91603 13.8735 8.91603 13.2752C8.91603 12.6769 9.40105 12.1918 9.99936 12.1918C10.5977 12.1918 11.0827 12.6769 11.0827 13.2752Z" fill="#D21C1C"/>
</svg>
