<svg width="18" height="20" viewBox="0 0 18 20" fill="none" xmlns="http://www.w3.org/2000/svg">
<path d="M0.966681 5.20956C0.392683 5.02847 0.0980416 4.68077 0.023121 4.09608C-0.0765749 3.318 0.261724 2.65711 0.878929 2.42422C1.12527 2.33126 1.21378 2.32344 2.03164 2.3224C2.88823 2.3213 2.92464 2.32482 3.13336 2.42913C3.39332 2.55905 3.5062 2.75604 3.5062 3.07978C3.5062 3.33514 3.39204 3.54272 3.17766 3.67713C3.04864 3.75802 2.94596 3.76934 2.16282 3.78903C1.32412 3.81012 1.28803 3.81468 1.19812 3.91084C0.980701 4.14337 1.14247 4.79701 1.50683 5.15823L1.67256 5.32253L1.49127 5.3202C1.39155 5.31891 1.15549 5.26913 0.966681 5.20956Z" fill="#898989"/>
<path d="M1.45933 9.17778C1.44239 9.1661 1.3916 9.15652 1.34644 9.15649C1.25606 9.15642 0.977117 9.09715 0.920812 9.06604C0.901209 9.05521 0.871189 9.04634 0.8541 9.04634C0.837014 9.04634 0.823032 9.03649 0.823032 9.02444C0.823032 9.01239 0.805109 9.00253 0.783196 9.00253C0.761286 9.00253 0.738282 8.99376 0.732078 8.98305C0.72587 8.97234 0.696198 8.95698 0.666136 8.94893C0.636071 8.94087 0.573642 8.90645 0.527396 8.87243C0.430382 8.80107 0.227793 8.59301 0.227793 8.56474C0.227793 8.55422 0.21587 8.53258 0.201293 8.51666C0.164004 8.47592 0.0889785 8.29892 0.061734 8.1874C0.0373144 8.08745 -0.000744687 7.77955 1.10857e-05 7.6881C0.00107504 7.56013 0.0261015 7.30136 0.0413343 7.26092C0.0504109 7.23682 0.0750107 7.15795 0.0960036 7.08566C0.116993 7.01337 0.169347 6.89507 0.212342 6.82277C0.292406 6.68816 0.480165 6.48776 0.574967 6.43573C0.60416 6.41971 0.632661 6.40117 0.638307 6.39453C0.657693 6.3717 0.885747 6.26414 0.914752 6.26414C0.930711 6.26414 0.949477 6.25428 0.956452 6.24224C0.96343 6.23019 1.00499 6.22033 1.04882 6.22033C1.09264 6.22033 1.1342 6.21047 1.14118 6.19842C1.14932 6.18438 1.46598 6.17651 2.02378 6.17651C2.58158 6.17651 2.89825 6.18438 2.90638 6.19842C2.91336 6.21047 2.94135 6.22033 2.96859 6.22033C3.1254 6.22033 3.43636 6.46898 3.464 6.61649C3.47068 6.65213 3.48418 6.6866 3.49401 6.69308C3.51897 6.70955 3.51652 7.11287 3.49137 7.12947C3.48008 7.13692 3.47084 7.16587 3.47084 7.1938C3.47084 7.22174 3.45699 7.25687 3.44005 7.27187C3.42312 7.28687 3.40927 7.30893 3.40927 7.32089C3.40927 7.35017 3.26733 7.4874 3.22071 7.50319C3.20024 7.51013 3.18348 7.52499 3.18348 7.53623C3.18348 7.54747 3.16655 7.55666 3.14585 7.55666C3.12516 7.55666 3.10189 7.56342 3.09415 7.57167C3.0315 7.63855 2.91249 7.64938 2.13668 7.65878C1.58367 7.66549 1.33104 7.67622 1.29513 7.69452C1.24928 7.71788 1.22766 7.73909 1.15183 7.83505C1.14033 7.84961 1.13093 7.87613 1.13093 7.894C1.13093 7.91187 1.12169 7.93259 1.1104 7.94003C1.09911 7.94748 1.08988 8.02142 1.08988 8.10434C1.08988 8.18726 1.09911 8.26119 1.1104 8.26864C1.12169 8.27609 1.13093 8.31131 1.13093 8.34691C1.13093 8.3825 1.13982 8.42875 1.15068 8.44967C1.16155 8.47059 1.19479 8.54686 1.22456 8.61915C1.25433 8.69145 1.28475 8.75553 1.29216 8.76155C1.29957 8.76758 1.33281 8.81194 1.36603 8.86013C1.39925 8.90833 1.44538 8.96561 1.46854 8.98743C1.57807 9.09061 1.60478 9.11207 1.6237 9.11207C1.6349 9.11207 1.64406 9.12192 1.64406 9.13397C1.64406 9.14602 1.65737 9.15588 1.67364 9.15588C1.68991 9.15588 1.70893 9.16574 1.7159 9.17778C1.73252 9.20647 1.50092 9.20647 1.45933 9.17778Z" fill="#898989"/>
<path d="M1.4803 13.0333C1.27924 13.0145 1.02364 12.9662 0.998968 12.9424C0.988245 12.932 0.953607 12.9236 0.922001 12.9236C0.89039 12.9236 0.864528 12.9137 0.864528 12.9017C0.864528 12.8896 0.852399 12.8797 0.837581 12.8797C0.822759 12.8797 0.762767 12.8551 0.704264 12.825C0.645762 12.7949 0.588611 12.7702 0.577267 12.7702C0.565923 12.7702 0.556643 12.7604 0.556643 12.7483C0.556643 12.7363 0.547327 12.7264 0.535939 12.7264C0.502726 12.7264 0.341697 12.5719 0.259024 12.4607C0.17375 12.346 0.0957839 12.1808 0.0624932 12.0442C0.0382351 11.9447 0 11.6383 0 11.5434C0 11.4211 0.0401237 11.1307 0.0726549 11.0176C0.0917143 10.9514 0.112504 10.875 0.118851 10.8479C0.125198 10.8208 0.13855 10.7986 0.148525 10.7986C0.158497 10.7986 0.166659 10.7789 0.166659 10.7548C0.166659 10.7307 0.173902 10.7109 0.182755 10.7109C0.191611 10.7109 0.216032 10.6789 0.237021 10.6397C0.283688 10.5527 0.53308 10.2947 0.570572 10.2947C0.585493 10.2947 0.597694 10.2849 0.597694 10.2728C0.597694 10.2608 0.607259 10.2509 0.618944 10.2509C0.630629 10.2509 0.664084 10.2342 0.693287 10.2138C0.758005 10.1685 0.941313 10.0992 0.998968 10.0983C1.02211 10.0979 1.04982 10.0885 1.06054 10.0775C1.09684 10.0401 1.34463 10.0275 2.04475 10.0271C2.7227 10.0268 2.92441 10.0365 3.00945 10.0739C3.2655 10.1862 3.43968 10.3397 3.46508 10.4752C3.4714 10.509 3.48462 10.5419 3.49445 10.5484C3.51804 10.564 3.51758 10.9417 3.4939 10.9906C3.48377 11.0115 3.45992 11.068 3.44089 11.1162C3.40641 11.2036 3.27156 11.3393 3.15312 11.4059C3.11925 11.4249 3.07307 11.4512 3.0505 11.4643C3.02397 11.4797 2.71883 11.4925 2.18842 11.5006C1.64016 11.5089 1.34899 11.5214 1.31199 11.5382C1.23884 11.5715 1.13135 11.6931 1.13135 11.7425C1.13135 11.7641 1.12212 11.7879 1.11083 11.7953C1.09954 11.8028 1.0903 11.8767 1.0903 11.9597C1.0903 12.0426 1.09954 12.1165 1.11083 12.124C1.12212 12.1314 1.13135 12.1666 1.13135 12.2022C1.13135 12.2378 1.13964 12.2841 1.14977 12.305C1.1599 12.3259 1.18505 12.3874 1.20565 12.4416C1.22626 12.4958 1.24804 12.5451 1.25406 12.5511C1.26008 12.5572 1.29233 12.6015 1.32572 12.6497C1.44264 12.8185 1.55382 12.9369 1.6291 12.973C1.66015 12.9878 1.68554 13.0067 1.68554 13.0149C1.68554 13.0232 1.70171 13.0344 1.72146 13.0399C1.77045 13.0536 1.66588 13.0507 1.4803 13.0333Z" fill="#898989"/>
<path d="M1.49576 16.899C1.48971 16.8926 1.39811 16.8771 1.29221 16.8646C1.18631 16.8521 1.09089 16.8327 1.08017 16.8216C1.06944 16.8104 1.03468 16.8012 1.00292 16.8012C0.971158 16.8012 0.92913 16.7922 0.909528 16.7812C0.849488 16.7475 0.63741 16.6479 0.625586 16.6479C0.574956 16.6479 0.227329 16.3222 0.227329 16.2748C0.227329 16.2648 0.215406 16.2437 0.20083 16.2277C0.166079 16.1898 0.0890128 16.0123 0.072749 15.9328C0.0657012 15.8984 0.0519291 15.8505 0.0421518 15.8264C0.0256752 15.7858 0 15.5256 0 15.3992C0 15.2782 0.0253629 15.0132 0.0408709 14.972C0.0499475 14.9479 0.0745473 14.869 0.0955401 14.7967C0.141591 14.6381 0.260413 14.4344 0.377377 14.3135C0.480786 14.2067 0.689925 14.053 0.760994 14.0317C0.815255 14.0154 0.891386 13.9829 0.950578 13.9507C0.97018 13.9401 1.01813 13.9314 1.05713 13.9314C1.09612 13.9314 1.13374 13.9215 1.14072 13.9095C1.15811 13.8795 2.90905 13.8795 2.92644 13.9095C2.93342 13.9215 2.96004 13.9314 2.9856 13.9314C3.13355 13.9314 3.43673 14.1845 3.46417 14.331C3.4705 14.3647 3.48372 14.3977 3.49355 14.4041C3.51851 14.4206 3.51606 14.8239 3.49091 14.8405C3.47962 14.848 3.47038 14.8769 3.47038 14.9049C3.47038 14.9328 3.45652 14.9679 3.43959 14.9829C3.42266 14.9979 3.4088 15.0192 3.4088 15.0302C3.4088 15.0699 3.23826 15.228 3.1625 15.2585C3.14556 15.2653 3.11567 15.2801 3.09606 15.2912C3.07646 15.3024 3.04183 15.3115 3.0191 15.3115C2.99636 15.3115 2.97776 15.3209 2.97776 15.3323C2.97776 15.3449 2.66084 15.3556 2.17214 15.3597C1.41453 15.3659 1.36161 15.3689 1.28441 15.4101C1.23925 15.4342 1.19319 15.4761 1.18204 15.5032C1.1709 15.5303 1.15473 15.5525 1.14612 15.5525C1.13751 15.5525 1.13046 15.5717 1.13046 15.595C1.13046 15.6184 1.12123 15.6437 1.10994 15.6511C1.09865 15.6585 1.08941 15.7325 1.08941 15.8154C1.08941 15.8983 1.09865 15.9723 1.10994 15.9797C1.12123 15.9872 1.13046 16.0224 1.13046 16.058C1.13046 16.0936 1.13935 16.1398 1.15022 16.1607C1.16108 16.1817 1.19353 16.256 1.22233 16.326C1.25113 16.396 1.29766 16.4778 1.32573 16.5078C1.3538 16.5377 1.37677 16.571 1.37677 16.5817C1.37677 16.6105 1.56346 16.7989 1.60649 16.8135C1.6269 16.8204 1.6436 16.8353 1.6436 16.8465C1.6436 16.8578 1.65691 16.8669 1.67318 16.8669C1.68944 16.8669 1.70846 16.8768 1.71544 16.8889C1.72856 16.9115 1.51665 16.9213 1.49576 16.899Z" fill="#898989"/>
<path d="M5.54945 19.9807C5.32683 19.9544 4.93258 19.8492 4.80925 19.7834C4.76135 19.7578 4.68951 19.7215 4.6496 19.7026C4.53967 19.6508 4.19833 19.4252 4.09376 19.3352C4.00942 19.2626 3.56288 18.7889 3.51752 18.7239C3.2524 18.3438 3.0603 17.9454 2.99492 17.6401C2.9769 17.5558 2.94793 17.4593 2.93055 17.4254C2.91247 17.3903 2.89299 17.1106 2.88502 16.7719L2.87109 16.1797L3.03666 16.1615C3.12772 16.1515 3.21765 16.1303 3.2365 16.1145C3.25536 16.0987 3.30786 16.0763 3.35317 16.0648C3.49844 16.0277 3.75509 15.8533 3.91379 15.684C4.24909 15.3261 4.37722 14.722 4.23961 14.148C4.20173 13.99 4.03732 13.6964 3.91899 13.5755C3.72169 13.374 3.65872 13.3199 3.62118 13.3199C3.60001 13.3199 3.56777 13.3008 3.54955 13.2773C3.53133 13.2539 3.45462 13.2169 3.37909 13.1951C3.30356 13.1733 3.22869 13.1452 3.21273 13.1327C3.19677 13.1202 3.11513 13.1002 3.03131 13.0881L2.87891 13.0663V12.6993V12.3323L3.01679 12.3123C3.09263 12.3013 3.19584 12.2726 3.24614 12.2485C3.29645 12.2243 3.35311 12.2046 3.37205 12.2046C3.39099 12.2046 3.49009 12.1547 3.59227 12.0937C3.8093 11.9642 4.04875 11.6956 4.16343 11.4532C4.33595 11.0884 4.33255 10.4851 4.15571 10.0814C4.00407 9.73528 3.60581 9.38172 3.28488 9.30834C3.22923 9.29562 3.17047 9.27392 3.15431 9.26011C3.13814 9.24631 3.07283 9.23049 3.00917 9.22496L2.89342 9.21491V8.84352V8.47212L3.02992 8.45129C3.5081 8.37828 3.96855 8.03208 4.15571 7.60484C4.33249 7.20127 4.33587 6.59995 4.16343 6.2312C4.06767 6.02643 3.78581 5.70731 3.60349 5.59725C3.45005 5.50461 3.16995 5.39949 2.9987 5.37026L2.87891 5.34982V4.98491V4.62L3.02668 4.59831C3.10795 4.58638 3.20918 4.55727 3.25164 4.53363C3.2941 4.50999 3.34497 4.49056 3.36468 4.49045C3.44588 4.49002 3.73644 4.302 3.87067 4.16302C4.21282 3.80876 4.35326 3.33011 4.27434 2.78721C4.24293 2.57114 4.13217 2.26445 4.05023 2.16666C4.02881 2.1411 3.97944 2.07746 3.9405 2.02522C3.82141 1.86546 3.53981 1.68231 3.27465 1.59216C3.13767 1.54559 3.02958 1.49896 3.03445 1.48853C3.03933 1.47811 3.06669 1.41382 3.09525 1.34566C3.26599 0.938247 3.62025 0.529391 4.01099 0.288775C4.20621 0.168558 4.56254 0.0551162 4.83251 0.0272311C5.19376 -0.0100819 13.5551 -0.00858236 13.9157 0.0288599C14.0708 0.0449692 14.2211 0.0717487 14.2495 0.0883702C14.278 0.104992 14.3731 0.142404 14.4609 0.171509C14.6653 0.239248 14.9803 0.460317 15.1856 0.680022C15.4133 0.923829 15.5324 1.10825 15.6354 1.37664L15.6948 1.53155L15.9414 1.55002C16.2917 1.57625 16.6157 1.67482 16.8852 1.83712C17.3875 2.13962 17.7042 2.55362 17.9195 3.18904L17.9878 3.39042L17.9964 10.6091C18.0052 17.951 18.0023 18.1821 17.8993 18.3927C17.8763 18.4398 17.8574 18.4923 17.8573 18.5093C17.8573 18.5407 17.6807 18.9301 17.6538 18.9585C17.6457 18.967 17.6012 19.0282 17.555 19.0944C17.2988 19.4609 16.835 19.8029 16.4783 19.8883C16.3985 19.9074 16.3071 19.9396 16.2751 19.9597C16.2311 19.9876 14.9557 19.9972 10.9776 19.9998C8.09589 20.0016 5.65322 19.993 5.54945 19.9807ZM16.0119 18.4973C16.0206 18.4822 16.0744 18.4605 16.1314 18.4491C16.2717 18.421 16.4551 18.2372 16.5397 18.0398L16.6089 17.8782V10.7613V3.64445L16.532 3.47654C16.4107 3.21194 16.2165 3.077 15.9268 3.05596L15.8397 3.04963L15.8246 9.44727C15.8076 16.602 15.8308 15.9122 15.5897 16.4355C15.3826 16.8851 14.9324 17.3317 14.5174 17.4992C14.4624 17.5215 14.3912 17.5519 14.3593 17.5669C14.1463 17.6671 14.0517 17.6693 9.53348 17.6799C6.28558 17.6875 5.02695 17.7 5.02695 17.7245C5.02695 17.8591 5.11558 18.0309 5.27393 18.2032C5.42113 18.3635 5.48048 18.4049 5.63753 18.4569C5.82223 18.518 5.90602 18.519 10.9106 18.5219C13.8394 18.5236 16.0027 18.5131 16.0119 18.4973Z" fill="#898989"/>
</svg>
