<svg width="17" height="17" viewBox="0 0 17 17" fill="none" xmlns="http://www.w3.org/2000/svg">
<path d="M5.37111 8.88956C5.08519 8.58986 4.61045 8.57868 4.31075 8.8646C4.01104 9.15052 3.99987 9.62526 4.28579 9.92497L6.42959 12.2123C6.73615 12.5337 7.25323 12.5197 7.54203 12.1823L12.2013 6.31849C12.4706 6.00381 12.4339 5.53036 12.1192 5.26101C11.8046 4.99165 11.3311 5.02839 11.0618 5.34307L7.18279 10.2707C7.06892 10.4154 6.85935 10.4404 6.71469 10.3265C6.70123 10.3159 6.68861 10.3043 6.67693 10.2917L5.37111 8.88956ZM0 8.33333C0 3.75 3.75 0 8.33333 0C12.9167 0 16.6667 3.75 16.6667 8.33333C16.6667 12.9167 12.9167 16.6667 8.33333 16.6667C3.75 16.6667 0 12.9167 0 8.33333Z" fill="#28A138"/>
</svg>
