<svg width="22" height="22" viewBox="0 0 22 22" fill="none" xmlns="http://www.w3.org/2000/svg">
<path d="M10.0938 5.7H9.79375V6V8V8.3H10.0938H12.0938H12.3938V8V6V5.7H12.0938H10.0938ZM10.0938 9.7H9.79375V10V16V16.3H10.0938H12.0938H12.3938V16V10V9.7H12.0938H10.0938ZM11.0938 0.7C5.40806 0.7 0.79375 5.31431 0.79375 11C0.79375 16.6857 5.40806 21.3 11.0938 21.3C16.7794 21.3 21.3937 16.6857 21.3937 11C21.3937 5.31431 16.7794 0.7 11.0938 0.7ZM11.0938 18.7C6.84944 18.7 3.39375 15.2443 3.39375 11C3.39375 6.75569 6.84944 3.3 11.0938 3.3C15.3381 3.3 18.7938 6.75569 18.7938 11C18.7938 15.2443 15.3381 18.7 11.0938 18.7Z" fill="#898989" stroke="#898989" stroke-width="0.6"/>
</svg>
