<svg width="20" height="20" viewBox="0 0 20 20" fill="none" xmlns="http://www.w3.org/2000/svg">
<path d="M11.3327 6.08342C11.3327 6.66119 10.8993 7.16675 10.2493 7.16675C9.59935 7.16675 9.16602 6.66119 9.16602 6.08342C9.16602 5.50564 9.67157 5.00008 10.2493 5.00008C10.8271 5.00008 11.3327 5.50564 11.3327 6.08342ZM9.02713 14.1667C8.61046 14.1667 8.33268 13.9046 8.33268 13.5113C8.33268 13.1181 8.61046 12.8559 9.02713 12.8559H9.58268C9.65213 12.8559 9.72157 12.7903 9.72157 12.7248V9.77536C9.72157 9.70982 9.65213 9.64428 9.58268 9.64428H9.02713C8.61046 9.64428 8.33268 9.3821 8.33268 8.98884C8.33268 8.59559 8.61046 8.33341 9.02713 8.33341H9.72157C10.4855 8.33341 11.1105 8.9233 11.1105 9.64428V12.7903C11.1105 12.8559 11.1799 12.9214 11.2493 12.9214H11.8049C12.2216 12.9214 12.4993 13.1836 12.4993 13.5769C12.4993 13.9701 12.2216 14.1667 11.8049 14.1667H9.02713ZM9.99935 1.66675C5.41602 1.66675 1.66602 5.41675 1.66602 10.0001C1.66602 14.5834 5.41602 18.3334 9.99935 18.3334C14.5827 18.3334 18.3327 14.5834 18.3327 10.0001C18.3327 5.41675 14.5827 1.66675 9.99935 1.66675Z" fill="#0172CB"/>
</svg>
