<svg width="20" height="20" viewBox="0 0 20 20" fill="none" xmlns="http://www.w3.org/2000/svg">
<path d="M5.63877 19.9832C5.23591 19.9229 4.7491 19.8126 4.41712 19.7065C3.99388 19.5713 3.00591 19.1048 3.00591 19.0403C3.00591 19.0174 2.98221 18.9986 2.95325 18.9986C2.85881 18.9984 2.23509 18.5024 1.85785 18.1274C1.49475 17.7664 0.994888 17.1318 1.01547 17.0579C1.02126 17.0371 1.00876 17.0201 0.987684 17.0201C0.928458 17.0201 0.626636 16.4453 0.439791 15.9766C0.120194 15.175 -0.00125105 14.5215 9.70513e-06 13.6103C0.00109274 12.8281 0.0805959 12.319 0.309732 11.627C0.556479 10.8818 0.951941 10.1484 1.3968 9.61108C1.69556 9.25021 2.93295 8.01341 2.97145 8.03718C2.9904 8.04889 3.00591 8.03243 3.00591 8.00061C3.00591 7.92124 4.66634 6.28727 4.90157 6.13517C5.00583 6.06775 5.10061 6.00064 5.1122 5.98603C5.12378 5.97143 5.27235 5.86981 5.44235 5.76021C5.79492 5.53292 6.31044 5.28766 6.71798 5.15333L6.99681 5.06143L7.04864 4.73677C7.11938 4.29366 7.30673 3.82649 7.55245 3.48044C7.88151 3.01703 9.52219 1.42716 9.99679 1.1118C11.1422 0.350721 12.2846 0.000315041 13.6216 2.32477e-07C14.5679 -0.000221494 15.3425 0.158151 16.1702 0.521123C16.5102 0.670212 16.6727 0.757611 17.1433 1.04437C17.3846 1.1914 17.9311 1.64186 18.175 1.89472C18.7892 2.53155 19.1871 3.14467 19.5769 4.05513C19.6641 4.25889 19.8311 4.84478 19.9246 5.2751C19.9851 5.55391 20.0018 5.80492 19.9999 6.41172C19.9977 7.10859 19.9851 7.24347 19.8806 7.694C19.7323 8.33292 19.6109 8.67438 19.3261 9.25326C18.9183 10.082 18.68 10.3674 16.9506 12.0989C15.2173 13.8343 14.8537 14.137 14.0218 14.537C13.7046 14.6895 13.0836 14.933 13.0041 14.9361C13.0004 14.9363 12.9665 15.1163 12.9288 15.3363C12.8491 15.8003 12.6413 16.2729 12.3458 16.6623C12.1098 16.9733 10.6605 18.4033 10.3147 18.6663C9.52416 19.2677 8.62179 19.6839 7.6608 19.8904C7.29157 19.9698 5.9579 20.0309 5.63877 19.9832ZM7.00774 17.0143C7.00778 16.9995 7.07894 16.9741 7.16582 16.958C7.45422 16.9042 7.95363 16.6873 8.27266 16.4772C8.54869 16.2954 9.74011 15.1608 9.78113 15.0406C9.78885 15.018 9.74992 14.9995 9.69462 14.9995C9.53016 14.9995 8.78539 14.7317 8.35588 14.5181C7.72739 14.2055 7.27974 13.8831 6.77466 13.3794C6.38033 12.9861 6.28305 12.8614 6.1336 12.5579C5.9104 12.1046 5.82036 11.7173 5.82036 11.2108C5.82036 10.7104 5.9058 10.3399 6.12891 9.87278C6.27465 9.56763 6.3661 9.4454 6.68712 9.12664C7.10016 8.71651 7.41604 8.52102 7.95568 8.34154C8.20205 8.2596 8.33834 8.24342 8.7841 8.2432C9.07754 8.24298 9.32721 8.25248 9.33892 8.26414C9.3607 8.28585 9.05591 9.82365 9.00591 9.94428C8.99071 9.98098 8.97478 10.0678 8.97052 10.1373C8.96626 10.2068 8.917 10.4776 8.86105 10.7392L8.75932 11.2149L8.88484 11.3321C9.06409 11.4996 9.47881 11.7753 9.72496 11.8908C9.84081 11.9451 9.94507 12.0008 9.95665 12.0146C9.98284 12.0458 10.2718 12.1028 10.4411 12.1103C10.5476 12.115 10.5695 12.0986 10.5802 12.0064C10.5926 11.8994 10.5971 11.8979 10.7803 11.9398C10.8833 11.9634 10.9677 11.9984 10.9677 12.0177C10.9677 12.0369 11.0063 12.0527 11.0536 12.0527C11.1009 12.0527 11.2182 12.0928 11.3145 12.1419C11.4865 12.2296 11.4954 12.2299 11.8475 12.1607C12.2959 12.0727 12.7505 11.8854 13.1242 11.6347C13.4702 11.4026 16.1077 8.79104 16.3796 8.41132C16.6125 8.08603 16.7874 7.73346 16.912 7.33785C16.9667 7.1642 17.0216 7.01265 17.034 7.00108C17.0465 6.9895 17.0546 6.73376 17.0521 6.43277C17.0466 5.78957 16.9587 5.40403 16.6965 4.87482C16.2815 4.03716 15.5891 3.43787 14.6684 3.11946C14.3024 2.99285 14.2309 2.98256 13.6568 2.97372C13.0403 2.96424 13.0381 2.96454 12.5754 3.12394C11.908 3.35384 11.574 3.58007 10.8263 4.30846C10.4754 4.6503 10.1994 4.9413 10.2128 4.95511C10.2263 4.96893 10.3842 5.01778 10.5638 5.06368C11.2322 5.23452 12.0752 5.65359 12.6667 6.10903C13.3633 6.64549 13.7321 7.08866 13.9522 7.65358C14.1311 8.11274 14.1734 8.33677 14.1729 8.81984C14.1722 9.36419 14.0781 9.72744 13.7989 10.2627C13.6155 10.6143 13.0888 11.1603 12.7292 11.3716C12.2182 11.6719 11.5424 11.8257 10.9561 11.7752C10.6819 11.7516 10.6317 11.7359 10.6481 11.6788C10.6588 11.6413 10.737 11.2602 10.8218 10.8319C10.9066 10.4036 10.992 10.0471 11.0116 10.0399C11.0312 10.0326 11.0372 10.0007 11.0251 9.96898C11.0129 9.93729 11.044 9.71593 11.0941 9.47706C11.248 8.74436 11.253 8.80494 11.023 8.60247C10.6775 8.29836 10.1533 8.01838 9.72644 7.91005C9.4615 7.84281 9.41108 7.86062 9.40966 8.02192C9.40933 8.06244 9.38466 8.09559 9.3549 8.09559C9.28257 8.09559 8.83338 7.93667 8.67636 7.85553C8.49916 7.76395 8.18461 7.79974 7.68186 7.96866C6.98801 8.20179 6.76909 8.37727 5.10769 10.032C3.50005 11.6333 3.36114 11.8135 3.08993 12.6497C2.97512 13.0036 2.96378 13.0899 2.96378 13.6103C2.96378 14.1281 2.97573 14.2201 3.09065 14.5875C3.23288 15.0422 3.42259 15.4043 3.71446 15.7783C3.96275 16.0964 4.04368 16.1691 4.45925 16.4475C5.12614 16.8943 5.69974 17.0644 6.4917 17.0504C6.77546 17.0453 7.00768 17.0291 7.00774 17.0143Z" fill="#363636"/>
</svg>
