<svg width="26" height="26" viewBox="0 0 26 26" fill="none" xmlns="http://www.w3.org/2000/svg">
<path fill-rule="evenodd" clip-rule="evenodd" d="M13 0C20.1602 0 26 5.83982 26 13C26 20.1602 20.1602 26 13 26C5.83982 26 0 20.1602 0 13C0 5.83982 5.83982 0 13 0ZM1.63754 15.4236L9.22622 15.3837L13.0139 7.8749L17.008 15.4236H24.3228C23.0424 19.1121 18.793 19.4792 17.0087 15.4259C16.0378 18.712 11.1677 20.0347 9.20753 15.3641C7.98776 19.6485 2.36921 19.1592 1.63754 15.4236V15.4236ZM13 1.38298C19.1984 1.38298 24.3513 6.27795 24.6017 12.4037L18.1426 12.3842L14.3994 4.39731L11.9423 4.41025L7.83629 12.3857L1.39825 12.4037C1.71212 6.28082 6.80159 1.38298 13 1.38298Z" fill="#2E2C34"/>
</svg>
