<svg width="16" height="16" viewBox="0 0 16 16" fill="none" xmlns="http://www.w3.org/2000/svg">
<path fill-rule="evenodd" clip-rule="evenodd" d="M8 0C12.4063 0 16 3.59374 16 8C16 12.4063 12.4063 16 8 16C3.59374 16 0 12.4063 0 8C0 3.59374 3.59374 0 8 0ZM1.00772 9.49147L5.67768 9.46689L8.00858 4.84609L10.4665 9.49147H14.9679C14.18 11.7613 11.5649 11.9872 10.4669 9.49289C9.86942 11.5151 6.87243 12.329 5.66618 9.45481C4.91554 12.0914 1.45797 11.7903 1.00772 9.49145V9.49147ZM8 0.851062C11.8144 0.851062 14.9854 3.86335 15.1395 7.63302L11.1647 7.62103L8.86114 2.70604L7.34911 2.714L4.82233 7.62199L0.860462 7.63302C1.05361 3.86512 4.18559 0.851062 8 0.851062Z" fill="#005197"/>
</svg>
