<svg width="17" height="20" viewBox="0 0 17 20" fill="none" xmlns="http://www.w3.org/2000/svg">
<path d="M4.7669 18.3744C4.35015 17.9807 4.34898 17.318 4.76434 16.9229L11.2801 10.7245C11.6945 10.3304 11.6945 9.66963 11.2801 9.27547L4.76434 3.0771C4.34898 2.68198 4.35015 2.01926 4.7669 1.6256L5.79876 0.650919C6.18516 0.285934 6.78957 0.287001 7.17468 0.653347L16.2384 9.27547C16.6527 9.66963 16.6527 10.3304 16.2384 10.7245L7.17468 19.3467C6.78957 19.713 6.18516 19.7141 5.79876 19.3491L4.7669 18.3744Z" fill="#363636"/>
<path d="M2 8.4C1.11634 8.4 0.400001 9.11634 0.400001 10C0.400001 10.8837 1.11634 11.6 2 11.6V8.4ZM12 8.4L2 8.4V11.6L12 11.6V8.4Z" fill="#363636"/>
</svg>
