<svg width="20" height="20" viewBox="0 0 20 20" fill="none" xmlns="http://www.w3.org/2000/svg">
<path d="M17.7975 2.20452L17.7973 2.20435C15.6585 0.0653638 12.1968 0.0650674 10.06 2.20435C10.06 2.20441 10.0599 2.20446 10.0599 2.20452L7.78906 4.47556L7.50626 4.75839L7.78906 5.04122L8.98432 6.23659L9.26718 6.51947L9.55003 6.23659L11.821 3.96538C12.9362 2.85006 14.8106 2.73744 16.0361 3.96514L16.0363 3.96538C17.2644 5.19356 17.1514 7.066 16.0363 8.18121L13.7653 10.4524L13.4825 10.7352L13.7653 11.0181L14.9629 12.2158L15.2458 12.4987L15.5286 12.2158L17.7996 9.94458L17.8 9.94425C19.9338 7.80518 19.9338 4.34357 17.7975 2.20452ZM3.96773 16.0381L3.96749 16.0378C2.73943 14.8097 2.8524 12.9372 3.96749 11.822L6.23847 9.55081L6.52128 9.26798L6.23847 8.98515L5.04088 7.78744L4.75802 7.50455L4.47516 7.78744L2.20418 10.0586C0.0653656 12.1977 0.065125 15.6598 2.20435 17.7967C4.34288 19.9329 7.80448 19.936 9.94142 17.7965C9.94147 17.7965 9.94153 17.7964 9.94159 17.7964L12.2124 15.5253L12.4952 15.2425L12.2124 14.9597L11.0171 13.7643L10.734 13.4811L10.4511 13.7646L8.1828 16.0378C7.06758 17.1532 5.19325 17.2658 3.96773 16.0381ZM4.38466 2.62625L4.38466 2.62625L4.38326 2.62486C4.27313 2.51579 4.12439 2.45461 3.96939 2.45461C3.81438 2.45461 3.66565 2.51579 3.55551 2.62486L3.55411 2.62625L2.62603 3.55442L2.62603 3.55442L2.62464 3.55582C2.51559 3.66596 2.45443 3.81469 2.45443 3.96968C2.45443 4.12466 2.51559 4.27339 2.62464 4.38354L2.62464 4.38354L2.62603 4.38493L15.6191 17.3793C15.848 17.6082 16.2208 17.6082 16.4497 17.3793L17.3778 16.4511C17.6066 16.2223 17.6066 15.8495 17.3778 15.6206L4.38466 2.62625Z" fill="#363636" stroke="#363636" stroke-width="0.8"/>
</svg>
